<?xml version="1.0" encoding="UTF-8"?>
<svg width="120" height="40" viewBox="0 0 120 40" fill="none" xmlns="http://www.w3.org/2000/svg">
  <path d="M10 20C10 14.4772 14.4772 10 20 10H100C105.523 10 110 14.4772 110 20C110 25.5228 105.523 30 100 30H20C14.4772 30 10 25.5228 10 20Z" fill="#111827"/>
  <path d="M20 20C20 15.5817 23.5817 12 28 12H92C96.4183 12 100 15.5817 100 20C100 24.4183 96.4183 28 92 28H28C23.5817 28 20 24.4183 20 20Z" fill="white"/>
  <path d="M30 20C30 17.7909 31.7909 16 34 16H86C88.2091 16 90 17.7909 90 20C90 22.2091 88.2091 24 86 24H34C31.7909 24 30 22.2091 30 20Z" fill="#111827"/>
</svg>
