<svg width="500" height="750" viewBox="0 0 500 750" fill="none" xmlns="http://www.w3.org/2000/svg">
  <rect width="500" height="750" fill="#1F2937"/>
  <path d="M150 300L200 350L250 275L300 325L350 250" stroke="#6B7280" stroke-width="8" stroke-linecap="round" stroke-linejoin="round"/>
  <rect x="50" y="400" width="400" height="20" rx="4" fill="#4B5563"/>
  <rect x="50" y="440" width="300" height="12" rx="4" fill="#4B5563"/>
  <rect x="50" y="470" width="350" height="12" rx="4" fill="#4B5563"/>
  <rect x="50" y="500" width="250" height="12" rx="4" fill="#4B5563"/>
  <path d="M150 150C150 138.954 158.954 130 170 130H330C341.046 130 350 138.954 350 150V250C350 261.046 341.046 270 330 270H170C158.954 270 150 261.046 150 250V150Z" fill="#374151"/>
  <path d="M200 200L225 175L250 200L275 175L300 200" stroke="#9CA3AF" stroke-width="4" stroke-linecap="round" stroke-linejoin="round"/>
</svg>
